<mxfile host="app.diagrams.net" modified="2024-03-11T18:14:05.218Z" agent="Mozilla/5.0 (Windows NT 10.0; Win64; x64; rv:109.0) Gecko/20100101 Firefox/115.0" version="24.0.2" etag="p1IB89ljpizqULumUFYx" type="github">
  <diagram name="Page-1" id="QQ6Rt_CZvNju5Nrj0bbv">
    <mxGraphModel>
      <root>
        <mxCell id="0" />
        <mxCell id="1" parent="0" />
      </root>
    </mxGraphModel>
  </diagram>
</mxfile>
